<?xml version="1.0" encoding="utf-8"?>
<!-- Generator: Adobe Illustrator 24.1.3, SVG Export Plug-In . SVG Version: 6.00 Build 0)  -->
<svg version="1.1" id="Layer_1" xmlns="http://www.w3.org/2000/svg" xmlns:xlink="http://www.w3.org/1999/xlink" x="0px" y="0px"
	 viewBox="0 0 142 123.3" style="enable-background:new 0 0 142 123.3;" xml:space="preserve">
<style type="text/css">
	.st0{fill:#F2F4F3; opacity: 0.1;}
	.st1{fill:#B8C5C2; opacity: 0.1;}
	.st2{fill:#CEE0D6; opacity: 0.1;}
</style>
<g id="Layer_2_1_">
	<g id="Layer_1-2">
		<path class="st0" d="M86,55.3c-3.7-16.1-12.3-21.4-13.2-23.4c-0.8-1.3-1.5-2.6-2-4c0-0.1-0.1-0.1-0.1-0.2c0,1.3-0.5,2.6-1.5,3.4
			C67.1,32.8,56.4,41.7,55.5,60c-0.8,17,12.3,27.2,14.1,28.5l0.2,0.1c0.5-1.2,1-4.5,1.4-9.1c0.1,3.7,0.6,7.6,2.4,8.5l0.1-0.1
			c0.8-0.6,1.5-1.2,2.2-1.8C80.4,82.1,88.8,71.9,86,55.3"/>
		<path class="st1" d="M71.2,79.6c-0.4,4.6-0.9,7.9-1.4,9c0,0,0.6,4,1,8.3h1.4c0.3-3,0.8-5.9,1.5-8.9C71.9,87.2,71.3,83.3,71.2,79.6
			"/>
		<path class="st2" d="M86,55.3c-3.7-16.1-12.3-21.4-13.2-23.4c-0.8-1.3-1.5-2.6-2-4c0.9,3.4,0.7,30.3,0.8,33.5
			c0.2,6.1,0.1,12.2-0.4,18.2c0.1,3.7,0.6,7.6,2.4,8.5l0.1-0.1c0.8-0.6,1.5-1.2,2.2-1.8l0.1-0.1C80.4,82.1,88.9,71.9,86,55.3"/>
	</g>
</g>
</svg>
